<svg version="1.1" id="Layer_1" xmlns="http://www.w3.org/2000/svg" xmlns:xlink="http://www.w3.org/1999/xlink" x="0px" y="0px"
	 width="100%" viewBox="0 0 512 512" enable-background="new 0 0 512 512" xml:space="preserve">
<path fill="#F74850" opacity="1.000000" stroke="none" 
	d="
M361.888947,481.973877 
	C341.299988,491.712921 320.020935,498.512756 297.967529,501.650146 
	C280.391968,504.150482 262.376343,505.420441 244.663055,504.679260 
	C213.377960,503.370239 183.187042,496.141205 154.526917,482.972687 
	C133.045380,473.102478 113.466187,460.467285 95.527390,445.102386 
	C73.085884,425.880768 54.727085,403.420197 40.219852,377.687073 
	C28.802139,357.434204 20.515650,335.942017 15.384762,313.388000 
	C12.532218,300.848969 11.400167,287.877075 10.110063,275.038208 
	C9.201930,266.000671 8.698853,256.828400 9.131527,247.769623 
	C10.052362,228.490372 12.712504,209.430420 17.911566,190.744858 
	C22.638832,173.754944 28.879829,157.351181 37.138847,141.844086 
	C45.807358,125.568153 55.703987,109.984795 68.239456,96.294662 
	C74.050758,89.948067 79.943031,83.667343 85.994499,77.550568 
	C100.021194,63.372501 116.198296,52.020760 133.323151,41.934174 
	C149.509247,32.400501 166.566986,24.698729 184.677582,19.888058 
	C198.788559,16.139791 213.202011,13.170206 227.664978,11.215322 
	C240.382111,9.496412 253.380188,8.812265 266.207947,9.200274 
	C285.489136,9.783483 304.551666,12.678548 323.230713,17.910271 
	C339.421082,22.444948 355.042755,28.387531 369.960663,36.051941 
	C387.273895,44.947010 403.310303,55.785057 418.097809,68.526962 
	C440.842743,88.125549 459.534424,110.896690 474.105530,137.182861 
	C486.509430,159.559326 495.095612,183.185379 500.097656,208.269348 
	C503.986176,227.769424 505.817505,247.417831 504.862213,267.196381 
	C503.948212,286.120178 501.286530,304.864471 496.099121,323.210205 
	C491.530243,339.368500 485.674072,355.000732 477.963013,369.879150 
	C469.010132,387.153595 458.182495,403.185760 445.542450,418.055450 
	C427.263062,439.559204 405.715210,457.074554 381.690857,471.642029 
	C375.436279,475.434540 368.758850,478.529755 361.888947,481.973877 
M175.448380,159.900162 
	C170.498810,164.848480 165.543732,169.791306 160.600937,174.746384 
	C152.521362,182.846008 152.484329,188.432709 160.479187,196.431931 
	C179.322266,215.285263 198.177216,234.126740 217.018005,252.982361 
	C218.278564,254.243927 219.460815,255.583755 221.591705,257.862823 
	C219.813049,259.116241 218.124527,259.982086 216.843567,261.257355 
	C197.953278,280.063293 179.110458,298.916931 160.271500,317.774384 
	C152.684616,325.368713 152.646744,331.248444 160.102890,338.750244 
	C165.035385,343.712921 169.986313,348.657410 174.942307,353.596680 
	C182.759308,361.387329 188.538742,361.429382 196.293655,353.685455 
	C215.273132,334.732910 234.227615,315.755341 253.201950,296.797668 
	C254.436447,295.564240 255.753906,294.413818 257.395691,292.887360 
	C259.007141,294.682068 260.169678,296.102722 261.460419,297.395355 
	C280.412567,316.375214 299.363251,335.356598 318.356689,354.295074 
	C325.227509,361.146057 331.429382,361.141327 338.278351,354.384705 
	C343.377960,349.353882 348.426361,344.270996 353.482758,339.196564 
	C361.491394,331.159302 361.497864,325.519348 353.463837,317.476471 
	C334.626007,298.617859 315.769318,279.778168 296.926819,260.924255 
	C295.675385,259.672089 294.479065,258.364899 293.180908,257.003418 
	C294.449493,255.653854 295.329315,254.666351 296.262726,253.732452 
	C315.577179,234.408096 334.915833,215.107880 354.207550,195.760834 
	C361.253693,188.694489 361.197754,182.604813 354.138733,175.470947 
	C349.100159,170.378906 344.025116,165.322769 338.945129,160.271957 
	C331.155548,152.527100 325.485535,152.566040 317.605713,160.439438 
	C298.749847,179.279968 279.910004,198.136536 261.054596,216.977478 
	C259.792145,218.238937 258.453308,219.423950 256.113037,221.615631 
	C254.875076,219.819275 254.036301,218.108002 252.763214,216.829025 
	C233.840866,197.819565 214.876968,178.851349 195.886368,159.909973 
	C188.888535,152.930283 183.112885,152.825027 175.448380,159.900162 
z"/>
<path fill="#FFFFFF" opacity="1.000000" stroke="none" 
	d="
M175.701767,159.642258 
	C183.112885,152.825027 188.888535,152.930283 195.886368,159.909973 
	C214.876968,178.851349 233.840866,197.819565 252.763214,216.829025 
	C254.036301,218.108002 254.875076,219.819275 256.113037,221.615631 
	C258.453308,219.423950 259.792145,218.238937 261.054596,216.977478 
	C279.910004,198.136536 298.749847,179.279968 317.605713,160.439438 
	C325.485535,152.566040 331.155548,152.527100 338.945129,160.271957 
	C344.025116,165.322769 349.100159,170.378906 354.138733,175.470947 
	C361.197754,182.604813 361.253693,188.694489 354.207550,195.760834 
	C334.915833,215.107880 315.577179,234.408096 296.262726,253.732452 
	C295.329315,254.666351 294.449493,255.653854 293.180908,257.003418 
	C294.479065,258.364899 295.675385,259.672089 296.926819,260.924255 
	C315.769318,279.778168 334.626007,298.617859 353.463837,317.476471 
	C361.497864,325.519348 361.491394,331.159302 353.482758,339.196564 
	C348.426361,344.270996 343.377960,349.353882 338.278351,354.384705 
	C331.429382,361.141327 325.227509,361.146057 318.356689,354.295074 
	C299.363251,335.356598 280.412567,316.375214 261.460419,297.395355 
	C260.169678,296.102722 259.007141,294.682068 257.395691,292.887360 
	C255.753906,294.413818 254.436447,295.564240 253.201950,296.797668 
	C234.227615,315.755341 215.273132,334.732910 196.293655,353.685455 
	C188.538742,361.429382 182.759308,361.387329 174.942307,353.596680 
	C169.986313,348.657410 165.035385,343.712921 160.102890,338.750244 
	C152.646744,331.248444 152.684616,325.368713 160.271500,317.774384 
	C179.110458,298.916931 197.953278,280.063293 216.843567,261.257355 
	C218.124527,259.982086 219.813049,259.116241 221.591705,257.862823 
	C219.460815,255.583755 218.278564,254.243927 217.018005,252.982361 
	C198.177216,234.126740 179.322266,215.285263 160.479187,196.431931 
	C152.484329,188.432709 152.521362,182.846008 160.600937,174.746384 
	C165.543732,169.791306 170.498810,164.848480 175.701767,159.642258 
z"/>
</svg>